<?xml version="1.0" standalone="no"?>
<!DOCTYPE svg PUBLIC "-//W3C//DTD SVG 20010904//EN"
 "http://www.w3.org/TR/2001/REC-SVG-20010904/DTD/svg10.dtd">
<svg version="1.0" xmlns="http://www.w3.org/2000/svg"
 width="2027.000000pt" height="2027.000000pt" viewBox="0 0 2027.000000 2027.000000"
 preserveAspectRatio="xMidYMid meet">
<metadata>
Created by potrace 1.14, written by Peter Selinger 2001-2017
</metadata>
<g transform="translate(0.000000,2027.000000) scale(0.100000,-0.100000)"
fill="#000000" stroke="none">
<path d="M6029 17766 c-2 -2 -44 -7 -94 -10 -49 -3 -99 -8 -110 -10 -11 -2
-45 -7 -75 -11 -30 -4 -71 -9 -90 -11 -88 -12 -309 -58 -445 -94 -530 -139
-1022 -375 -1472 -706 -43 -32 -83 -63 -89 -69 -7 -5 -31 -26 -55 -45 -125
-101 -187 -157 -324 -294 -176 -177 -203 -206 -316 -346 -237 -292 -407 -566
-573 -923 -25 -55 -46 -101 -46 -103 0 -2 -9 -23 -19 -47 -45 -101 -150 -403
-167 -482 -1 -5 -7 -30 -14 -55 -7 -25 -14 -52 -16 -60 -42 -186 -54 -241 -58
-270 -3 -19 -8 -46 -10 -60 -3 -14 -7 -43 -11 -65 -3 -22 -7 -53 -10 -70 -8
-55 -25 -223 -30 -310 -5 -82 -6 -490 -1 -540 3 -22 7 -78 11 -125 3 -47 8
-98 10 -115 3 -16 7 -48 11 -70 3 -22 7 -53 9 -70 4 -46 23 -148 51 -275 14
-63 27 -122 29 -130 2 -8 9 -35 16 -60 7 -25 13 -49 14 -55 7 -32 72 -231 95
-292 l28 -72 -132 -96 c-72 -52 -146 -107 -165 -123 -227 -184 -287 -237 -466
-417 -231 -231 -372 -397 -557 -658 -345 -486 -566 -942 -751 -1552 -35 -114
-98 -387 -121 -525 -3 -19 -8 -46 -11 -60 -3 -14 -8 -45 -11 -70 -3 -25 -7
-52 -9 -60 -2 -8 -7 -46 -11 -85 -3 -38 -8 -78 -10 -88 -12 -66 -19 -266 -19
-547 0 -316 5 -429 26 -595 5 -44 12 -98 15 -120 2 -22 7 -51 9 -65 3 -14 7
-38 10 -55 2 -16 7 -48 11 -70 3 -22 7 -44 9 -50 1 -5 5 -28 9 -50 13 -65 86
-369 93 -385 3 -8 7 -22 9 -31 8 -38 77 -246 122 -369 135 -365 319 -727 535
-1050 67 -101 186 -270 197 -280 3 -3 21 -25 40 -50 245 -317 598 -666 929
-918 119 -91 418 -296 456 -313 11 -5 36 -19 55 -31 175 -109 467 -253 710
-350 216 -87 573 -198 770 -240 25 -5 54 -11 65 -14 11 -2 31 -6 45 -9 14 -2
48 -9 75 -15 80 -16 304 -49 380 -55 39 -4 84 -9 100 -11 17 -2 84 -7 150 -11
160 -9 8586 -8 8785 1 178 8 268 13 325 20 22 3 69 8 105 11 36 3 74 8 85 10
11 1 45 6 75 10 30 3 78 10 105 15 28 5 68 12 90 15 85 12 234 40 315 59 14 4
39 9 55 11 17 3 77 17 135 31 58 15 110 27 115 28 65 15 306 86 325 96 11 6
20 9 20 6 0 -3 58 15 130 39 641 219 1199 501 1790 906 176 120 478 363 680
544 127 115 486 480 575 586 136 161 185 221 263 321 50 65 106 139 124 165
18 27 36 53 41 58 29 34 236 346 282 426 120 207 150 261 201 356 24 46 49 92
54 101 17 30 160 332 160 338 0 3 11 29 24 57 37 81 131 320 176 446 85 240
205 665 235 831 3 14 14 67 25 119 11 52 22 109 25 125 2 17 6 42 9 56 3 14 7
43 11 64 3 21 7 48 10 60 2 12 7 41 10 66 3 25 8 61 10 80 18 138 26 203 30
260 3 36 7 83 10 105 23 218 23 888 1 1115 -2 19 -7 76 -11 125 -4 50 -9 98
-10 107 -2 9 -6 44 -10 77 -3 33 -8 68 -10 79 -2 10 -6 43 -10 72 -4 29 -9 62
-11 74 -2 12 -7 41 -10 66 -3 24 -7 48 -10 51 -2 4 -7 29 -10 56 -3 26 -9 64
-14 83 -5 19 -11 46 -14 60 -70 382 -263 1000 -424 1361 -11 24 -32 73 -48
109 -63 145 -246 501 -315 613 -16 26 -29 50 -29 53 0 3 -13 25 -30 49 -16 24
-30 46 -30 49 0 6 -74 124 -88 142 -5 5 -15 20 -21 32 -30 56 -324 466 -389
543 -11 13 -59 71 -107 129 -48 58 -117 139 -154 180 -93 106 -460 472 -561
561 -47 40 -90 79 -96 84 -16 15 -89 76 -169 140 -38 31 -79 64 -90 72 -159
130 -551 397 -777 528 -230 134 -546 293 -763 384 -82 35 -163 69 -180 76
-172 74 -705 246 -864 280 -9 2 -74 17 -146 34 -71 16 -143 32 -160 35 -29 6
-54 10 -105 21 -14 3 -38 7 -55 10 -16 3 -43 7 -60 10 -76 14 -144 25 -184 30
-23 3 -55 7 -70 10 -50 8 -200 25 -208 23 -4 -1 -28 2 -53 5 -239 35 -889 41
-1235 12 -146 -12 -260 -23 -305 -30 -14 -2 -47 -7 -75 -10 -127 -16 -400 -62
-500 -85 -22 -5 -55 -12 -74 -15 -19 -3 -37 -8 -41 -10 -4 -2 -22 -7 -41 -10
-188 -33 -818 -230 -1004 -314 -22 -10 -71 -31 -110 -46 -105 -42 -182 -78
-375 -172 -156 -76 -176 -84 -185 -68 -5 9 -42 66 -82 126 -431 653 -1025
1172 -1734 1516 -205 100 -503 212 -692 262 -43 11 -81 22 -85 25 -9 5 -320
72 -372 80 -19 3 -57 8 -85 12 -27 3 -57 7 -65 9 -8 1 -44 6 -80 10 -36 4 -78
9 -95 12 -37 6 -680 15 -686 9z"/>
</g>
</svg>
